<?xml version="1.0" encoding="utf-8" standalone="no"?>
<!DOCTYPE svg PUBLIC "-//W3C//DTD SVG 1.1//EN"
  "http://www.w3.org/Graphics/SVG/1.1/DTD/svg11.dtd">
<svg xmlns:xlink="http://www.w3.org/1999/xlink" width="460.8pt" height="345.6pt" viewBox="0 0 460.8 345.6" xmlns="http://www.w3.org/2000/svg" version="1.1">
 <metadata>
  <rdf:RDF xmlns:dc="http://purl.org/dc/elements/1.1/" xmlns:cc="http://creativecommons.org/ns#" xmlns:rdf="http://www.w3.org/1999/02/22-rdf-syntax-ns#">
   <cc:Work>
    <dc:type rdf:resource="http://purl.org/dc/dcmitype/StillImage"/>
    <dc:date>2025-08-08T21:51:41.199899</dc:date>
    <dc:format>image/svg+xml</dc:format>
    <dc:creator>
     <cc:Agent>
      <dc:title>Matplotlib v3.10.3, https://matplotlib.org/</dc:title>
     </cc:Agent>
    </dc:creator>
   </cc:Work>
  </rdf:RDF>
 </metadata>
 <defs>
  <style type="text/css">*{stroke-linejoin: round; stroke-linecap: butt}</style>
 </defs>
 <g id="figure_1">
  <g id="patch_1">
   <path d="M 0 345.6 
L 460.8 345.6 
L 460.8 0 
L 0 0 
z
" style="fill: #ffffff"/>
  </g>
  <g id="axes_1">
   <g id="patch_2">
    <path d="M 57.6 307.584 
L 414.72 307.584 
L 414.72 41.472 
L 57.6 41.472 
z
" style="fill: #ffffff"/>
   </g>
   <g id="matplotlib.axis_1">
    <g id="xtick_1">
     <g id="line2d_1">
      <defs>
       <path id="mfc5ec7aa1c" d="M 0 0 
L 0 3.5 
" style="stroke: #000000; stroke-width: 0.8"/>
      </defs>
      <g>
       <use xlink:href="#mfc5ec7aa1c" x="73.832727" y="307.584" style="stroke: #000000; stroke-width: 0.8"/>
      </g>
     </g>
     <g id="text_1">
      <!-- 0 -->
      <g transform="translate(70.651477 322.182437) scale(0.1 -0.1)">
       <defs>
        <path id="DejaVuSans-30" d="M 2034 4250 
Q 1547 4250 1301 3770 
Q 1056 3291 1056 2328 
Q 1056 1369 1301 889 
Q 1547 409 2034 409 
Q 2525 409 2770 889 
Q 3016 1369 3016 2328 
Q 3016 3291 2770 3770 
Q 2525 4250 2034 4250 
z
M 2034 4750 
Q 2819 4750 3233 4129 
Q 3647 3509 3647 2328 
Q 3647 1150 3233 529 
Q 2819 -91 2034 -91 
Q 1250 -91 836 529 
Q 422 1150 422 2328 
Q 422 3509 836 4129 
Q 1250 4750 2034 4750 
z
" transform="scale(0.015625)"/>
       </defs>
       <use xlink:href="#DejaVuSans-30"/>
      </g>
     </g>
    </g>
    <g id="xtick_2">
     <g id="line2d_2">
      <g>
       <use xlink:href="#mfc5ec7aa1c" x="145.994218" y="307.584" style="stroke: #000000; stroke-width: 0.8"/>
      </g>
     </g>
     <g id="text_2">
      <!-- 1000 -->
      <g transform="translate(133.269218 322.182437) scale(0.1 -0.1)">
       <defs>
        <path id="DejaVuSans-31" d="M 794 531 
L 1825 531 
L 1825 4091 
L 703 3866 
L 703 4441 
L 1819 4666 
L 2450 4666 
L 2450 531 
L 3481 531 
L 3481 0 
L 794 0 
L 794 531 
z
" transform="scale(0.015625)"/>
       </defs>
       <use xlink:href="#DejaVuSans-31"/>
       <use xlink:href="#DejaVuSans-30" transform="translate(63.623047 0)"/>
       <use xlink:href="#DejaVuSans-30" transform="translate(127.246094 0)"/>
       <use xlink:href="#DejaVuSans-30" transform="translate(190.869141 0)"/>
      </g>
     </g>
    </g>
    <g id="xtick_3">
     <g id="line2d_3">
      <g>
       <use xlink:href="#mfc5ec7aa1c" x="218.155708" y="307.584" style="stroke: #000000; stroke-width: 0.8"/>
      </g>
     </g>
     <g id="text_3">
      <!-- 2000 -->
      <g transform="translate(205.430708 322.182437) scale(0.1 -0.1)">
       <defs>
        <path id="DejaVuSans-32" d="M 1228 531 
L 3431 531 
L 3431 0 
L 469 0 
L 469 531 
Q 828 903 1448 1529 
Q 2069 2156 2228 2338 
Q 2531 2678 2651 2914 
Q 2772 3150 2772 3378 
Q 2772 3750 2511 3984 
Q 2250 4219 1831 4219 
Q 1534 4219 1204 4116 
Q 875 4013 500 3803 
L 500 4441 
Q 881 4594 1212 4672 
Q 1544 4750 1819 4750 
Q 2544 4750 2975 4387 
Q 3406 4025 3406 3419 
Q 3406 3131 3298 2873 
Q 3191 2616 2906 2266 
Q 2828 2175 2409 1742 
Q 1991 1309 1228 531 
z
" transform="scale(0.015625)"/>
       </defs>
       <use xlink:href="#DejaVuSans-32"/>
       <use xlink:href="#DejaVuSans-30" transform="translate(63.623047 0)"/>
       <use xlink:href="#DejaVuSans-30" transform="translate(127.246094 0)"/>
       <use xlink:href="#DejaVuSans-30" transform="translate(190.869141 0)"/>
      </g>
     </g>
    </g>
    <g id="xtick_4">
     <g id="line2d_4">
      <g>
       <use xlink:href="#mfc5ec7aa1c" x="290.317199" y="307.584" style="stroke: #000000; stroke-width: 0.8"/>
      </g>
     </g>
     <g id="text_4">
      <!-- 3000 -->
      <g transform="translate(277.592199 322.182437) scale(0.1 -0.1)">
       <defs>
        <path id="DejaVuSans-33" d="M 2597 2516 
Q 3050 2419 3304 2112 
Q 3559 1806 3559 1356 
Q 3559 666 3084 287 
Q 2609 -91 1734 -91 
Q 1441 -91 1130 -33 
Q 819 25 488 141 
L 488 750 
Q 750 597 1062 519 
Q 1375 441 1716 441 
Q 2309 441 2620 675 
Q 2931 909 2931 1356 
Q 2931 1769 2642 2001 
Q 2353 2234 1838 2234 
L 1294 2234 
L 1294 2753 
L 1863 2753 
Q 2328 2753 2575 2939 
Q 2822 3125 2822 3475 
Q 2822 3834 2567 4026 
Q 2313 4219 1838 4219 
Q 1578 4219 1281 4162 
Q 984 4106 628 3988 
L 628 4550 
Q 988 4650 1302 4700 
Q 1616 4750 1894 4750 
Q 2613 4750 3031 4423 
Q 3450 4097 3450 3541 
Q 3450 3153 3228 2886 
Q 3006 2619 2597 2516 
z
" transform="scale(0.015625)"/>
       </defs>
       <use xlink:href="#DejaVuSans-33"/>
       <use xlink:href="#DejaVuSans-30" transform="translate(63.623047 0)"/>
       <use xlink:href="#DejaVuSans-30" transform="translate(127.246094 0)"/>
       <use xlink:href="#DejaVuSans-30" transform="translate(190.869141 0)"/>
      </g>
     </g>
    </g>
    <g id="xtick_5">
     <g id="line2d_5">
      <g>
       <use xlink:href="#mfc5ec7aa1c" x="362.478689" y="307.584" style="stroke: #000000; stroke-width: 0.8"/>
      </g>
     </g>
     <g id="text_5">
      <!-- 4000 -->
      <g transform="translate(349.753689 322.182437) scale(0.1 -0.1)">
       <defs>
        <path id="DejaVuSans-34" d="M 2419 4116 
L 825 1625 
L 2419 1625 
L 2419 4116 
z
M 2253 4666 
L 3047 4666 
L 3047 1625 
L 3713 1625 
L 3713 1100 
L 3047 1100 
L 3047 0 
L 2419 0 
L 2419 1100 
L 313 1100 
L 313 1709 
L 2253 4666 
z
" transform="scale(0.015625)"/>
       </defs>
       <use xlink:href="#DejaVuSans-34"/>
       <use xlink:href="#DejaVuSans-30" transform="translate(63.623047 0)"/>
       <use xlink:href="#DejaVuSans-30" transform="translate(127.246094 0)"/>
       <use xlink:href="#DejaVuSans-30" transform="translate(190.869141 0)"/>
      </g>
     </g>
    </g>
    <g id="text_6">
     <!-- Iteration -->
     <g transform="translate(214.951406 335.860562) scale(0.1 -0.1)">
      <defs>
       <path id="DejaVuSans-49" d="M 628 4666 
L 1259 4666 
L 1259 0 
L 628 0 
L 628 4666 
z
" transform="scale(0.015625)"/>
       <path id="DejaVuSans-74" d="M 1172 4494 
L 1172 3500 
L 2356 3500 
L 2356 3053 
L 1172 3053 
L 1172 1153 
Q 1172 725 1289 603 
Q 1406 481 1766 481 
L 2356 481 
L 2356 0 
L 1766 0 
Q 1100 0 847 248 
Q 594 497 594 1153 
L 594 3053 
L 172 3053 
L 172 3500 
L 594 3500 
L 594 4494 
L 1172 4494 
z
" transform="scale(0.015625)"/>
       <path id="DejaVuSans-65" d="M 3597 1894 
L 3597 1613 
L 953 1613 
Q 991 1019 1311 708 
Q 1631 397 2203 397 
Q 2534 397 2845 478 
Q 3156 559 3463 722 
L 3463 178 
Q 3153 47 2828 -22 
Q 2503 -91 2169 -91 
Q 1331 -91 842 396 
Q 353 884 353 1716 
Q 353 2575 817 3079 
Q 1281 3584 2069 3584 
Q 2775 3584 3186 3129 
Q 3597 2675 3597 1894 
z
M 3022 2063 
Q 3016 2534 2758 2815 
Q 2500 3097 2075 3097 
Q 1594 3097 1305 2825 
Q 1016 2553 972 2059 
L 3022 2063 
z
" transform="scale(0.015625)"/>
       <path id="DejaVuSans-72" d="M 2631 2963 
Q 2534 3019 2420 3045 
Q 2306 3072 2169 3072 
Q 1681 3072 1420 2755 
Q 1159 2438 1159 1844 
L 1159 0 
L 581 0 
L 581 3500 
L 1159 3500 
L 1159 2956 
Q 1341 3275 1631 3429 
Q 1922 3584 2338 3584 
Q 2397 3584 2469 3576 
Q 2541 3569 2628 3553 
L 2631 2963 
z
" transform="scale(0.015625)"/>
       <path id="DejaVuSans-61" d="M 2194 1759 
Q 1497 1759 1228 1600 
Q 959 1441 959 1056 
Q 959 750 1161 570 
Q 1363 391 1709 391 
Q 2188 391 2477 730 
Q 2766 1069 2766 1631 
L 2766 1759 
L 2194 1759 
z
M 3341 1997 
L 3341 0 
L 2766 0 
L 2766 531 
Q 2569 213 2275 61 
Q 1981 -91 1556 -91 
Q 1019 -91 701 211 
Q 384 513 384 1019 
Q 384 1609 779 1909 
Q 1175 2209 1959 2209 
L 2766 2209 
L 2766 2266 
Q 2766 2663 2505 2880 
Q 2244 3097 1772 3097 
Q 1472 3097 1187 3025 
Q 903 2953 641 2809 
L 641 3341 
Q 956 3463 1253 3523 
Q 1550 3584 1831 3584 
Q 2591 3584 2966 3190 
Q 3341 2797 3341 1997 
z
" transform="scale(0.015625)"/>
       <path id="DejaVuSans-69" d="M 603 3500 
L 1178 3500 
L 1178 0 
L 603 0 
L 603 3500 
z
M 603 4863 
L 1178 4863 
L 1178 4134 
L 603 4134 
L 603 4863 
z
" transform="scale(0.015625)"/>
       <path id="DejaVuSans-6f" d="M 1959 3097 
Q 1497 3097 1228 2736 
Q 959 2375 959 1747 
Q 959 1119 1226 758 
Q 1494 397 1959 397 
Q 2419 397 2687 759 
Q 2956 1122 2956 1747 
Q 2956 2369 2687 2733 
Q 2419 3097 1959 3097 
z
M 1959 3584 
Q 2709 3584 3137 3096 
Q 3566 2609 3566 1747 
Q 3566 888 3137 398 
Q 2709 -91 1959 -91 
Q 1206 -91 779 398 
Q 353 888 353 1747 
Q 353 2609 779 3096 
Q 1206 3584 1959 3584 
z
" transform="scale(0.015625)"/>
       <path id="DejaVuSans-6e" d="M 3513 2113 
L 3513 0 
L 2938 0 
L 2938 2094 
Q 2938 2591 2744 2837 
Q 2550 3084 2163 3084 
Q 1697 3084 1428 2787 
Q 1159 2491 1159 1978 
L 1159 0 
L 581 0 
L 581 3500 
L 1159 3500 
L 1159 2956 
Q 1366 3272 1645 3428 
Q 1925 3584 2291 3584 
Q 2894 3584 3203 3211 
Q 3513 2838 3513 2113 
z
" transform="scale(0.015625)"/>
      </defs>
      <use xlink:href="#DejaVuSans-49"/>
      <use xlink:href="#DejaVuSans-74" transform="translate(29.492188 0)"/>
      <use xlink:href="#DejaVuSans-65" transform="translate(68.701172 0)"/>
      <use xlink:href="#DejaVuSans-72" transform="translate(130.224609 0)"/>
      <use xlink:href="#DejaVuSans-61" transform="translate(171.337891 0)"/>
      <use xlink:href="#DejaVuSans-74" transform="translate(232.617188 0)"/>
      <use xlink:href="#DejaVuSans-69" transform="translate(271.826172 0)"/>
      <use xlink:href="#DejaVuSans-6f" transform="translate(299.609375 0)"/>
      <use xlink:href="#DejaVuSans-6e" transform="translate(360.791016 0)"/>
     </g>
    </g>
   </g>
   <g id="matplotlib.axis_2">
    <g id="ytick_1">
     <g id="line2d_6">
      <defs>
       <path id="m42f8d68356" d="M 0 0 
L -3.5 0 
" style="stroke: #000000; stroke-width: 0.8"/>
      </defs>
      <g>
       <use xlink:href="#m42f8d68356" x="57.6" y="267.282754" style="stroke: #000000; stroke-width: 0.8"/>
      </g>
     </g>
     <g id="text_7">
      <!-- 2000 -->
      <g transform="translate(25.15 271.081973) scale(0.1 -0.1)">
       <use xlink:href="#DejaVuSans-32"/>
       <use xlink:href="#DejaVuSans-30" transform="translate(63.623047 0)"/>
       <use xlink:href="#DejaVuSans-30" transform="translate(127.246094 0)"/>
       <use xlink:href="#DejaVuSans-30" transform="translate(190.869141 0)"/>
      </g>
     </g>
    </g>
    <g id="ytick_2">
     <g id="line2d_7">
      <g>
       <use xlink:href="#m42f8d68356" x="57.6" y="215.593921" style="stroke: #000000; stroke-width: 0.8"/>
      </g>
     </g>
     <g id="text_8">
      <!-- 4000 -->
      <g transform="translate(25.15 219.39314) scale(0.1 -0.1)">
       <use xlink:href="#DejaVuSans-34"/>
       <use xlink:href="#DejaVuSans-30" transform="translate(63.623047 0)"/>
       <use xlink:href="#DejaVuSans-30" transform="translate(127.246094 0)"/>
       <use xlink:href="#DejaVuSans-30" transform="translate(190.869141 0)"/>
      </g>
     </g>
    </g>
    <g id="ytick_3">
     <g id="line2d_8">
      <g>
       <use xlink:href="#m42f8d68356" x="57.6" y="163.905088" style="stroke: #000000; stroke-width: 0.8"/>
      </g>
     </g>
     <g id="text_9">
      <!-- 6000 -->
      <g transform="translate(25.15 167.704306) scale(0.1 -0.1)">
       <defs>
        <path id="DejaVuSans-36" d="M 2113 2584 
Q 1688 2584 1439 2293 
Q 1191 2003 1191 1497 
Q 1191 994 1439 701 
Q 1688 409 2113 409 
Q 2538 409 2786 701 
Q 3034 994 3034 1497 
Q 3034 2003 2786 2293 
Q 2538 2584 2113 2584 
z
M 3366 4563 
L 3366 3988 
Q 3128 4100 2886 4159 
Q 2644 4219 2406 4219 
Q 1781 4219 1451 3797 
Q 1122 3375 1075 2522 
Q 1259 2794 1537 2939 
Q 1816 3084 2150 3084 
Q 2853 3084 3261 2657 
Q 3669 2231 3669 1497 
Q 3669 778 3244 343 
Q 2819 -91 2113 -91 
Q 1303 -91 875 529 
Q 447 1150 447 2328 
Q 447 3434 972 4092 
Q 1497 4750 2381 4750 
Q 2619 4750 2861 4703 
Q 3103 4656 3366 4563 
z
" transform="scale(0.015625)"/>
       </defs>
       <use xlink:href="#DejaVuSans-36"/>
       <use xlink:href="#DejaVuSans-30" transform="translate(63.623047 0)"/>
       <use xlink:href="#DejaVuSans-30" transform="translate(127.246094 0)"/>
       <use xlink:href="#DejaVuSans-30" transform="translate(190.869141 0)"/>
      </g>
     </g>
    </g>
    <g id="ytick_4">
     <g id="line2d_9">
      <g>
       <use xlink:href="#m42f8d68356" x="57.6" y="112.216254" style="stroke: #000000; stroke-width: 0.8"/>
      </g>
     </g>
     <g id="text_10">
      <!-- 8000 -->
      <g transform="translate(25.15 116.015473) scale(0.1 -0.1)">
       <defs>
        <path id="DejaVuSans-38" d="M 2034 2216 
Q 1584 2216 1326 1975 
Q 1069 1734 1069 1313 
Q 1069 891 1326 650 
Q 1584 409 2034 409 
Q 2484 409 2743 651 
Q 3003 894 3003 1313 
Q 3003 1734 2745 1975 
Q 2488 2216 2034 2216 
z
M 1403 2484 
Q 997 2584 770 2862 
Q 544 3141 544 3541 
Q 544 4100 942 4425 
Q 1341 4750 2034 4750 
Q 2731 4750 3128 4425 
Q 3525 4100 3525 3541 
Q 3525 3141 3298 2862 
Q 3072 2584 2669 2484 
Q 3125 2378 3379 2068 
Q 3634 1759 3634 1313 
Q 3634 634 3220 271 
Q 2806 -91 2034 -91 
Q 1263 -91 848 271 
Q 434 634 434 1313 
Q 434 1759 690 2068 
Q 947 2378 1403 2484 
z
M 1172 3481 
Q 1172 3119 1398 2916 
Q 1625 2713 2034 2713 
Q 2441 2713 2670 2916 
Q 2900 3119 2900 3481 
Q 2900 3844 2670 4047 
Q 2441 4250 2034 4250 
Q 1625 4250 1398 4047 
Q 1172 3844 1172 3481 
z
" transform="scale(0.015625)"/>
       </defs>
       <use xlink:href="#DejaVuSans-38"/>
       <use xlink:href="#DejaVuSans-30" transform="translate(63.623047 0)"/>
       <use xlink:href="#DejaVuSans-30" transform="translate(127.246094 0)"/>
       <use xlink:href="#DejaVuSans-30" transform="translate(190.869141 0)"/>
      </g>
     </g>
    </g>
    <g id="ytick_5">
     <g id="line2d_10">
      <g>
       <use xlink:href="#m42f8d68356" x="57.6" y="60.527421" style="stroke: #000000; stroke-width: 0.8"/>
      </g>
     </g>
     <g id="text_11">
      <!-- 10000 -->
      <g transform="translate(18.7875 64.32664) scale(0.1 -0.1)">
       <use xlink:href="#DejaVuSans-31"/>
       <use xlink:href="#DejaVuSans-30" transform="translate(63.623047 0)"/>
       <use xlink:href="#DejaVuSans-30" transform="translate(127.246094 0)"/>
       <use xlink:href="#DejaVuSans-30" transform="translate(190.869141 0)"/>
       <use xlink:href="#DejaVuSans-30" transform="translate(254.492188 0)"/>
      </g>
     </g>
    </g>
    <g id="text_12">
     <!-- Loss -->
     <g transform="translate(12.707813 185.495187) rotate(-90) scale(0.1 -0.1)">
      <defs>
       <path id="DejaVuSans-4c" d="M 628 4666 
L 1259 4666 
L 1259 531 
L 3531 531 
L 3531 0 
L 628 0 
L 628 4666 
z
" transform="scale(0.015625)"/>
       <path id="DejaVuSans-73" d="M 2834 3397 
L 2834 2853 
Q 2591 2978 2328 3040 
Q 2066 3103 1784 3103 
Q 1356 3103 1142 2972 
Q 928 2841 928 2578 
Q 928 2378 1081 2264 
Q 1234 2150 1697 2047 
L 1894 2003 
Q 2506 1872 2764 1633 
Q 3022 1394 3022 966 
Q 3022 478 2636 193 
Q 2250 -91 1575 -91 
Q 1294 -91 989 -36 
Q 684 19 347 128 
L 347 722 
Q 666 556 975 473 
Q 1284 391 1588 391 
Q 1994 391 2212 530 
Q 2431 669 2431 922 
Q 2431 1156 2273 1281 
Q 2116 1406 1581 1522 
L 1381 1569 
Q 847 1681 609 1914 
Q 372 2147 372 2553 
Q 372 3047 722 3315 
Q 1072 3584 1716 3584 
Q 2034 3584 2315 3537 
Q 2597 3491 2834 3397 
z
" transform="scale(0.015625)"/>
      </defs>
      <use xlink:href="#DejaVuSans-4c"/>
      <use xlink:href="#DejaVuSans-6f" transform="translate(53.962891 0)"/>
      <use xlink:href="#DejaVuSans-73" transform="translate(115.144531 0)"/>
      <use xlink:href="#DejaVuSans-73" transform="translate(167.244141 0)"/>
     </g>
    </g>
   </g>
   <g id="line2d_11">
    <path d="M 73.832727 53.568 
L 74.193535 53.712327 
L 74.554342 53.939351 
L 77.729448 55.145185 
L 78.090255 55.208504 
L 78.30674 55.288127 
L 78.595386 55.346861 
L 79.317001 55.859387 
L 80.399423 56.39788 
L 80.832392 56.461436 
L 81.193199 56.646647 
L 81.626168 56.661513 
L 81.842653 56.810863 
L 82.131299 56.902002 
L 83.213721 57.316465 
L 83.64669 57.768849 
L 84.296143 57.964044 
L 84.440466 57.998436 
L 84.584789 58.151963 
L 85.234243 58.164156 
L 85.667212 58.264893 
L 85.811535 58.32633 
L 86.244504 58.525172 
L 86.460988 58.54838 
L 86.605311 58.632099 
L 86.821796 58.716437 
L 89.275286 59.746293 
L 89.419609 59.84929 
L 89.780417 59.914755 
L 89.92474 60.049511 
L 91.295808 60.60511 
L 91.800938 61.02072 
L 91.945261 61.156207 
L 92.37823 61.442889 
L 92.811199 61.502131 
L 93.027684 61.813082 
L 93.388491 61.922855 
L 94.037945 62.250731 
L 94.543075 62.563679 
L 95.26469 62.971742 
L 95.481174 63.203365 
L 95.553336 63.193397 
L 95.76982 63.439194 
L 95.986305 63.528171 
L 96.924404 63.833699 
L 97.068727 63.976938 
L 97.429535 64.140238 
L 97.862504 64.502195 
L 98.15115 64.613657 
L 98.295473 64.729795 
L 98.872764 64.896076 
L 99.666541 65.15363 
L 99.810864 65.24438 
L 100.09951 65.256051 
L 100.676802 65.644069 
L 100.893286 65.734884 
L 101.181932 66.035729 
L 101.470578 66.116997 
L 101.687063 66.202163 
L 101.903547 66.259193 
L 102.192193 66.458581 
L 103.274615 66.708146 
L 103.4911 66.953404 
L 103.851907 66.941496 
L 104.068392 67.05684 
L 104.357038 67.111171 
L 104.645684 67.293316 
L 105.295137 67.379023 
L 106.449721 67.607687 
L 107.243497 67.675378 
L 107.604305 67.802215 
L 107.748628 67.865829 
L 108.253758 68.197768 
L 108.614566 68.41157 
L 109.119696 68.717951 
L 110.562926 69.087411 
L 111.71751 69.609642 
L 111.861833 69.699324 
L 112.22264 69.705098 
L 112.366963 69.880302 
L 112.872094 69.887933 
L 113.016417 69.965896 
L 113.305063 70.020638 
L 114.026677 70.322699 
L 114.459646 70.330621 
L 114.676131 70.573296 
L 114.892615 70.677592 
L 115.181261 70.731824 
L 115.397746 70.946711 
L 115.61423 71.01606 
L 115.975038 71.250404 
L 116.335845 71.315649 
L 116.55233 71.523635 
L 116.696653 71.515336 
L 116.913137 71.696248 
L 117.129622 71.750524 
L 117.346106 71.780897 
L 117.56259 71.943874 
L 117.851236 72.149939 
L 118.212044 72.232466 
L 119.150143 72.432336 
L 119.366628 72.502561 
L 120.376889 72.726127 
L 120.593373 72.886307 
L 120.737696 72.879763 
L 120.954181 73.037216 
L 121.314988 73.073806 
L 121.675795 73.398895 
L 121.89228 73.641224 
L 122.108764 73.713882 
L 122.758218 73.915216 
L 122.902541 74.071154 
L 123.119025 74.140252 
L 123.696317 74.21663 
L 123.984963 74.292937 
L 124.129286 74.356443 
L 124.345771 74.574851 
L 124.490094 74.554979 
L 124.706578 74.734684 
L 126.366292 75.267222 
L 126.799261 75.483853 
L 127.015746 75.545101 
L 127.160069 75.699732 
L 127.593038 75.750912 
L 128.314653 76.035289 
L 128.67546 76.163164 
L 128.747621 76.160288 
L 128.891944 76.330991 
L 129.830044 76.826813 
L 130.263013 77.171302 
L 130.984628 77.472929 
L 131.345435 77.783814 
L 131.489758 77.795589 
L 131.706243 78.011125 
L 131.922727 78.072325 
L 132.139212 78.141753 
L 132.57218 78.192816 
L 132.932988 78.310769 
L 133.149472 78.376194 
L 133.51028 78.497087 
L 133.726764 78.608466 
L 133.943249 78.707248 
L 134.376218 79.010991 
L 135.097833 79.139654 
L 135.242156 79.150224 
L 135.602963 79.494168 
L 135.819448 79.57631 
L 136.180255 79.649246 
L 136.613224 79.716263 
L 137.767808 80.060292 
L 138.056454 80.098436 
L 138.272938 80.160737 
L 139.355361 80.63262 
L 139.78833 80.778479 
L 140.076975 80.861615 
L 140.726429 81.152528 
L 141.520205 81.246211 
L 141.73669 81.435594 
L 141.953174 81.528533 
L 142.24182 81.620788 
L 142.386143 81.600605 
L 142.602628 81.804282 
L 142.746951 81.881969 
L 143.035597 81.986271 
L 143.252081 82.098959 
L 143.901534 82.290239 
L 144.045857 82.408918 
L 144.19018 82.499717 
L 144.695311 82.76046 
L 145.056118 82.934732 
L 146.932317 83.810009 
L 147.148802 83.96319 
L 147.726093 84.208226 
L 148.736354 84.417196 
L 149.169323 84.78237 
L 149.457969 84.831908 
L 149.890938 85.026515 
L 150.251746 85.059993 
L 151.045522 85.325678 
L 151.262007 85.512109 
L 151.767137 85.549292 
L 151.983621 85.681998 
L 152.41659 85.861902 
L 152.633075 86.024409 
L 152.705236 86.023464 
L 152.921721 86.161487 
L 153.35469 86.231341 
L 153.571174 86.383065 
L 154.437112 86.618167 
L 154.725758 86.997496 
L 155.158727 87.251767 
L 155.519534 87.316631 
L 155.663857 87.448487 
L 156.096826 87.598263 
L 156.385472 87.669952 
L 157.034926 87.765814 
L 157.107087 87.763688 
L 157.395733 88.085506 
L 157.540056 88.14324 
L 158.117348 88.416147 
L 158.261671 88.476134 
L 158.69464 88.695952 
L 158.983286 88.756115 
L 159.19977 88.946767 
L 159.921385 89.019214 
L 160.282193 89.253556 
L 160.643 89.33049 
L 160.931646 89.400562 
L 161.797584 89.429965 
L 161.941907 89.525178 
L 162.158392 89.543286 
L 162.447038 89.652717 
L 162.952168 89.723073 
L 164.03459 90.176835 
L 164.539721 90.281258 
L 165.333497 90.551743 
L 165.549982 90.579359 
L 165.838628 90.779338 
L 165.982951 90.848113 
L 166.199435 90.911093 
L 166.848888 90.98716 
L 166.993211 91.097803 
L 167.354019 91.473028 
L 167.859149 91.529957 
L 168.147795 91.702118 
L 168.941572 92.026724 
L 169.158056 92.079034 
L 169.374541 92.300629 
L 169.663187 92.340235 
L 169.951833 92.441689 
L 170.240478 92.546686 
L 170.456963 92.651891 
L 171.034255 92.707679 
L 171.250739 92.814899 
L 171.900193 92.883872 
L 172.477485 93.147971 
L 172.693969 93.195361 
L 173.054777 93.363259 
L 173.487746 93.445663 
L 173.920715 93.662558 
L 174.20936 93.752068 
L 174.498006 93.856246 
L 176.085559 94.128152 
L 176.662851 94.48349 
L 177.09582 94.544391 
L 177.456628 94.56504 
L 177.817435 94.886303 
L 178.178242 94.938853 
L 178.394727 95.002835 
L 178.827696 95.180078 
L 179.404988 95.245027 
L 180.198764 95.629919 
L 180.48741 95.676364 
L 180.848218 95.778134 
L 181.641994 95.837826 
L 182.002801 96.133455 
L 182.291447 96.20814 
L 182.796578 96.354464 
L 183.085224 96.405102 
L 183.301708 96.548575 
L 183.734677 96.503879 
L 184.023323 96.533121 
L 184.528454 96.611079 
L 185.538714 96.94159 
L 185.82736 96.98253 
L 186.548975 97.491272 
L 186.837621 97.543867 
L 187.054106 97.708411 
L 187.559236 97.968511 
L 187.775721 98.019065 
L 187.992205 98.106131 
L 189.002466 98.495197 
L 189.21895 98.563798 
L 189.435435 98.610891 
L 189.579758 98.726086 
L 189.940565 98.815662 
L 190.806503 99.108693 
L 192.10541 99.713889 
L 192.394056 99.747824 
L 193.259994 100.339895 
L 193.476478 100.393652 
L 193.620801 100.45484 
L 194.05377 100.471988 
L 194.270255 100.55448 
L 195.424839 100.653565 
L 195.785646 100.831651 
L 196.723745 100.840436 
L 197.012391 100.966724 
L 197.228876 101.027568 
L 197.373199 101.114362 
L 197.806168 101.150062 
L 198.38346 101.542837 
L 198.672106 101.615312 
L 199.032913 101.835396 
L 199.321559 101.936936 
L 204.589348 103.676689 
L 204.733671 103.767664 
L 205.094478 103.83389 
L 206.032578 104.076713 
L 206.249062 104.166215 
L 206.465547 104.164497 
L 206.898516 104.26014 
L 207.620131 104.507091 
L 207.980938 104.541982 
L 208.55823 104.726397 
L 209.568491 104.94645 
L 210.217944 105.223922 
L 210.50659 105.282551 
L 210.795236 105.43385 
L 211.156044 105.471557 
L 211.516851 105.562985 
L 212.310627 105.786388 
L 212.45495 105.8604 
L 212.743596 105.885372 
L 213.104404 105.944779 
L 213.465211 106.181988 
L 214.042503 106.468306 
L 214.619795 106.619679 
L 214.83628 106.720804 
L 215.413572 106.955913 
L 215.84654 107.030095 
L 216.063025 107.129566 
L 216.423832 107.292126 
L 217.001124 107.306665 
L 217.217609 107.425245 
L 217.361932 107.46867 
L 217.578416 107.560568 
L 217.794901 107.631478 
L 217.939224 107.715728 
L 218.155708 107.82476 
L 219.598938 108.178294 
L 220.104068 108.414548 
L 220.609199 108.548748 
L 220.825683 108.65142 
L 221.258652 108.732655 
L 221.763783 108.912253 
L 222.701882 108.962851 
L 222.990528 109.086697 
L 223.495658 109.145684 
L 223.639981 109.226006 
L 223.856466 109.264482 
L 226.021311 109.721457 
L 226.237795 109.790097 
L 226.887248 109.850097 
L 227.175894 109.997136 
L 227.608863 110.025743 
L 229.124255 110.260326 
L 229.412901 110.391934 
L 230.495323 110.518979 
L 230.85613 110.628781 
L 231.361261 110.69831 
L 231.79423 110.746769 
L 232.082876 110.883541 
L 232.227199 110.921904 
L 232.443683 111.023915 
L 232.804491 111.141503 
L 233.309621 111.409799 
L 235.402304 111.927495 
L 235.618789 111.988528 
L 236.196081 112.171944 
L 236.484727 112.21872 
L 241.175224 113.487171 
L 241.391708 113.566553 
L 241.824677 113.631232 
L 242.329807 113.779887 
L 244.350329 114.231277 
L 244.566814 114.280103 
L 245.071944 114.357381 
L 245.721397 114.454994 
L 246.226528 114.49984 
L 247.669758 114.930723 
L 249.545956 115.227402 
L 250.70054 115.312194 
L 251.494317 115.670217 
L 251.710801 115.685023 
L 251.999447 115.830459 
L 252.504578 115.92813 
L 256.329137 116.739449 
L 256.97859 116.823793 
L 257.267236 116.960487 
L 257.772366 117.081078 
L 258.133174 117.137366 
L 258.854789 117.158089 
L 259.143435 117.268075 
L 259.792888 117.341886 
L 260.153696 117.394576 
L 260.442342 117.460853 
L 260.730987 117.587813 
L 261.596925 117.670382 
L 262.462863 117.78418 
L 263.112317 117.854622 
L 264.483385 118.129993 
L 265.060677 118.200093 
L 266.143099 118.427149 
L 266.576068 118.466684 
L 267.15336 118.761185 
L 267.369845 118.834132 
L 267.730652 118.903641 
L 269.751174 119.3827 
L 270.256304 119.400233 
L 270.617112 119.44254 
L 271.410888 119.471535 
L 271.843857 119.578049 
L 272.276826 119.648681 
L 272.49331 119.791163 
L 272.926279 119.825291 
L 274.225186 120.083956 
L 274.585994 120.130492 
L 275.524093 120.362528 
L 275.812739 120.464189 
L 276.029223 120.489189 
L 276.390031 120.575498 
L 276.750838 120.745019 
L 277.616776 120.837293 
L 278.482714 121.072675 
L 281.080528 121.613248 
L 281.369174 121.677811 
L 282.018627 121.754428 
L 282.307273 121.785734 
L 283.678341 121.959046 
L 284.255633 122.107175 
L 284.832925 122.204902 
L 285.338056 122.252778 
L 285.55454 122.310159 
L 285.915348 122.391295 
L 286.203994 122.483474 
L 286.564801 122.658907 
L 287.286416 122.879504 
L 288.152354 122.953262 
L 292.482043 123.813052 
L 293.131497 123.89174 
L 293.78095 123.921678 
L 294.358242 124.005357 
L 294.791211 124.131672 
L 295.801472 124.391165 
L 296.378764 124.506748 
L 297.244702 124.633862 
L 297.533348 124.706878 
L 297.894155 124.774599 
L 298.471447 124.840899 
L 298.832254 124.916667 
L 299.481708 125.011018 
L 299.914677 125.074811 
L 300.419807 125.122311 
L 300.997099 125.312802 
L 301.285745 125.365532 
L 302.00736 125.453453 
L 302.440329 125.609217 
L 303.089782 125.777375 
L 303.45059 125.840574 
L 304.316528 125.954719 
L 304.605174 125.984658 
L 305.615435 126.07081 
L 306.048403 126.142814 
L 306.264888 126.060608 
L 306.770018 126.133633 
L 307.563795 126.300341 
L 307.924602 126.354189 
L 308.141087 126.411263 
L 308.862702 126.543482 
L 309.007025 126.499039 
L 309.584317 126.553902 
L 309.945124 126.625359 
L 310.378093 126.717908 
L 311.171869 126.747628 
L 311.460515 126.810055 
L 312.037807 126.905299 
L 312.975907 126.992028 
L 313.986167 127.13367 
L 314.779944 127.178307 
L 314.996428 127.243865 
L 315.285074 127.352566 
L 315.718043 127.3541 
L 315.934528 127.259306 
L 316.367497 127.357365 
L 317.666403 127.558894 
L 318.676664 127.636659 
L 320.336379 127.963468 
L 320.913671 128.07681 
L 321.274478 128.123865 
L 323.367161 128.30709 
L 324.73823 128.538812 
L 325.026875 128.56398 
L 325.387683 128.680235 
L 325.964975 128.730621 
L 326.253621 128.794514 
L 326.903074 128.862367 
L 327.769012 128.911495 
L 328.274143 128.982502 
L 328.562788 129.008037 
L 328.851434 129.101473 
L 329.645211 129.205091 
L 330.07818 129.269648 
L 331.810056 129.543126 
L 332.675993 129.624262 
L 333.036801 129.684618 
L 334.191385 129.765389 
L 334.768677 129.847114 
L 337.077844 130.25135 
L 337.655136 130.350261 
L 338.80972 130.452383 
L 339.026205 130.466883 
L 345.08777 131.287614 
L 345.304254 131.343673 
L 345.953708 131.44866 
L 346.963969 131.589416 
L 347.396938 131.645535 
L 347.685583 131.72886 
L 349.417459 131.852155 
L 349.706105 131.874662 
L 350.139074 131.940342 
L 351.005012 132.056731 
L 351.293658 132.098427 
L 352.37608 132.190389 
L 352.592565 132.253317 
L 353.242018 132.351897 
L 353.963633 132.420855 
L 354.685248 132.501664 
L 356.922254 132.860328 
L 357.138739 132.878791 
L 358.221161 132.988768 
L 359.880875 133.119377 
L 360.458167 133.175906 
L 360.746813 133.109671 
L 361.035459 133.118963 
L 362.04572 133.093413 
L 363.128142 133.109025 
L 363.344627 133.15052 
L 363.99408 133.184242 
L 364.138403 133.160334 
L 365.004341 133.24037 
L 365.292987 133.275111 
L 371.859683 133.812937 
L 373.375074 133.867401 
L 379.147993 134.260689 
L 379.508801 134.226504 
L 380.230416 134.296099 
L 381.024192 134.369852 
L 385.498204 134.576001 
L 387.374403 134.519046 
L 388.961956 134.722653 
L 389.17844 134.576359 
L 390.11654 134.731637 
L 391.198962 134.74811 
L 391.415447 134.698209 
L 392.137062 134.786164 
L 392.425708 134.838961 
L 396.322428 134.951745 
L 396.683235 135.018833 
L 398.34295 135.130224 
L 398.487273 135.05891 
L 398.487273 135.05891 
" clip-path="url(#pe5fc261515)" style="fill: none; stroke: #1f77b4; stroke-width: 1.5; stroke-linecap: square"/>
   </g>
   <g id="line2d_12">
    <path d="M 73.832727 285.773161 
L 75.564603 285.861556 
L 81.048876 286.152108 
L 83.358044 286.253679 
L 84.656951 286.32394 
L 92.811199 286.740407 
L 93.31633 286.79347 
L 95.26469 286.898067 
L 95.914143 286.963278 
L 97.501696 287.058515 
L 99.305733 287.156425 
L 99.883025 287.188079 
L 112.799932 287.738437 
L 114.748292 287.837539 
L 165.405659 290.275355 
L 167.137534 290.374564 
L 168.86941 290.467154 
L 171.972354 290.581618 
L 177.167982 290.781485 
L 180.054441 290.90863 
L 181.42551 290.93198 
L 184.239808 291.018486 
L 186.693298 291.126095 
L 194.99187 291.479515 
L 197.517522 291.526883 
L 199.82669 291.633987 
L 206.754193 291.860463 
L 209.712814 291.964066 
L 220.609199 292.368031 
L 221.980267 292.420439 
L 224.866727 292.476536 
L 228.691286 292.572681 
L 232.876652 292.708142 
L 234.392043 292.770827 
L 237.062019 292.862505 
L 238.793894 292.901828 
L 239.659832 292.922814 
L 242.47413 293.009461 
L 253.514838 293.282757 
L 269.606851 293.645073 
L 270.977919 293.648837 
L 274.946801 293.731264 
L 276.245708 293.77755 
L 282.956727 293.945922 
L 286.564801 294.037327 
L 297.605509 294.284204 
L 299.481708 294.310353 
L 302.584652 294.381936 
L 359.736552 295.240658 
L 369.694838 295.286302 
L 376.910987 295.337686 
L 385.137397 295.393393 
L 387.157919 295.388837 
L 388.601149 295.418475 
L 398.487273 295.478102 
L 398.487273 295.478102 
" clip-path="url(#pe5fc261515)" style="fill: none; stroke: #ff7f0e; stroke-width: 1.5; stroke-linecap: square"/>
   </g>
   <g id="patch_3">
    <path d="M 57.6 307.584 
L 57.6 41.472 
" style="fill: none; stroke: #000000; stroke-width: 0.8; stroke-linejoin: miter; stroke-linecap: square"/>
   </g>
   <g id="patch_4">
    <path d="M 414.72 307.584 
L 414.72 41.472 
" style="fill: none; stroke: #000000; stroke-width: 0.8; stroke-linejoin: miter; stroke-linecap: square"/>
   </g>
   <g id="patch_5">
    <path d="M 57.6 307.584 
L 414.72 307.584 
" style="fill: none; stroke: #000000; stroke-width: 0.8; stroke-linejoin: miter; stroke-linecap: square"/>
   </g>
   <g id="patch_6">
    <path d="M 57.6 41.472 
L 414.72 41.472 
" style="fill: none; stroke: #000000; stroke-width: 0.8; stroke-linejoin: miter; stroke-linecap: square"/>
   </g>
   <g id="legend_1">
    <g id="patch_7">
     <path d="M 301.22625 78.82825 
L 407.72 78.82825 
Q 409.72 78.82825 409.72 76.82825 
L 409.72 48.472 
Q 409.72 46.472 407.72 46.472 
L 301.22625 46.472 
Q 299.22625 46.472 299.22625 48.472 
L 299.22625 76.82825 
Q 299.22625 78.82825 301.22625 78.82825 
z
" style="fill: #ffffff; opacity: 0.8; stroke: #cccccc; stroke-linejoin: miter"/>
    </g>
    <g id="line2d_13">
     <path d="M 303.22625 54.570437 
L 313.22625 54.570437 
L 323.22625 54.570437 
" style="fill: none; stroke: #1f77b4; stroke-width: 1.5; stroke-linecap: square"/>
    </g>
    <g id="text_13">
     <!-- Training Loss -->
     <g transform="translate(331.22625 58.070437) scale(0.1 -0.1)">
      <defs>
       <path id="DejaVuSans-54" d="M -19 4666 
L 3928 4666 
L 3928 4134 
L 2272 4134 
L 2272 0 
L 1638 0 
L 1638 4134 
L -19 4134 
L -19 4666 
z
" transform="scale(0.015625)"/>
       <path id="DejaVuSans-67" d="M 2906 1791 
Q 2906 2416 2648 2759 
Q 2391 3103 1925 3103 
Q 1463 3103 1205 2759 
Q 947 2416 947 1791 
Q 947 1169 1205 825 
Q 1463 481 1925 481 
Q 2391 481 2648 825 
Q 2906 1169 2906 1791 
z
M 3481 434 
Q 3481 -459 3084 -895 
Q 2688 -1331 1869 -1331 
Q 1566 -1331 1297 -1286 
Q 1028 -1241 775 -1147 
L 775 -588 
Q 1028 -725 1275 -790 
Q 1522 -856 1778 -856 
Q 2344 -856 2625 -561 
Q 2906 -266 2906 331 
L 2906 616 
Q 2728 306 2450 153 
Q 2172 0 1784 0 
Q 1141 0 747 490 
Q 353 981 353 1791 
Q 353 2603 747 3093 
Q 1141 3584 1784 3584 
Q 2172 3584 2450 3431 
Q 2728 3278 2906 2969 
L 2906 3500 
L 3481 3500 
L 3481 434 
z
" transform="scale(0.015625)"/>
       <path id="DejaVuSans-20" transform="scale(0.015625)"/>
      </defs>
      <use xlink:href="#DejaVuSans-54"/>
      <use xlink:href="#DejaVuSans-72" transform="translate(46.333984 0)"/>
      <use xlink:href="#DejaVuSans-61" transform="translate(87.447266 0)"/>
      <use xlink:href="#DejaVuSans-69" transform="translate(148.726562 0)"/>
      <use xlink:href="#DejaVuSans-6e" transform="translate(176.509766 0)"/>
      <use xlink:href="#DejaVuSans-69" transform="translate(239.888672 0)"/>
      <use xlink:href="#DejaVuSans-6e" transform="translate(267.671875 0)"/>
      <use xlink:href="#DejaVuSans-67" transform="translate(331.050781 0)"/>
      <use xlink:href="#DejaVuSans-20" transform="translate(394.527344 0)"/>
      <use xlink:href="#DejaVuSans-4c" transform="translate(426.314453 0)"/>
      <use xlink:href="#DejaVuSans-6f" transform="translate(480.277344 0)"/>
      <use xlink:href="#DejaVuSans-73" transform="translate(541.458984 0)"/>
      <use xlink:href="#DejaVuSans-73" transform="translate(593.558594 0)"/>
     </g>
    </g>
    <g id="line2d_14">
     <path d="M 303.22625 69.248562 
L 313.22625 69.248562 
L 323.22625 69.248562 
" style="fill: none; stroke: #ff7f0e; stroke-width: 1.5; stroke-linecap: square"/>
    </g>
    <g id="text_14">
     <!-- Validation Loss -->
     <g transform="translate(331.22625 72.748562) scale(0.1 -0.1)">
      <defs>
       <path id="DejaVuSans-56" d="M 1831 0 
L 50 4666 
L 709 4666 
L 2188 738 
L 3669 4666 
L 4325 4666 
L 2547 0 
L 1831 0 
z
" transform="scale(0.015625)"/>
       <path id="DejaVuSans-6c" d="M 603 4863 
L 1178 4863 
L 1178 0 
L 603 0 
L 603 4863 
z
" transform="scale(0.015625)"/>
       <path id="DejaVuSans-64" d="M 2906 2969 
L 2906 4863 
L 3481 4863 
L 3481 0 
L 2906 0 
L 2906 525 
Q 2725 213 2448 61 
Q 2172 -91 1784 -91 
Q 1150 -91 751 415 
Q 353 922 353 1747 
Q 353 2572 751 3078 
Q 1150 3584 1784 3584 
Q 2172 3584 2448 3432 
Q 2725 3281 2906 2969 
z
M 947 1747 
Q 947 1113 1208 752 
Q 1469 391 1925 391 
Q 2381 391 2643 752 
Q 2906 1113 2906 1747 
Q 2906 2381 2643 2742 
Q 2381 3103 1925 3103 
Q 1469 3103 1208 2742 
Q 947 2381 947 1747 
z
" transform="scale(0.015625)"/>
      </defs>
      <use xlink:href="#DejaVuSans-56"/>
      <use xlink:href="#DejaVuSans-61" transform="translate(60.658203 0)"/>
      <use xlink:href="#DejaVuSans-6c" transform="translate(121.9375 0)"/>
      <use xlink:href="#DejaVuSans-69" transform="translate(149.720703 0)"/>
      <use xlink:href="#DejaVuSans-64" transform="translate(177.503906 0)"/>
      <use xlink:href="#DejaVuSans-61" transform="translate(240.980469 0)"/>
      <use xlink:href="#DejaVuSans-74" transform="translate(302.259766 0)"/>
      <use xlink:href="#DejaVuSans-69" transform="translate(341.46875 0)"/>
      <use xlink:href="#DejaVuSans-6f" transform="translate(369.251953 0)"/>
      <use xlink:href="#DejaVuSans-6e" transform="translate(430.433594 0)"/>
      <use xlink:href="#DejaVuSans-20" transform="translate(493.8125 0)"/>
      <use xlink:href="#DejaVuSans-4c" transform="translate(525.599609 0)"/>
      <use xlink:href="#DejaVuSans-6f" transform="translate(579.5625 0)"/>
      <use xlink:href="#DejaVuSans-73" transform="translate(640.744141 0)"/>
      <use xlink:href="#DejaVuSans-73" transform="translate(692.84375 0)"/>
     </g>
    </g>
   </g>
  </g>
 </g>
 <defs>
  <clipPath id="pe5fc261515">
   <rect x="57.6" y="41.472" width="357.12" height="266.112"/>
  </clipPath>
 </defs>
</svg>
